<svg width="200" height="50" viewBox="0 0 200 50" fill="none" xmlns="http://www.w3.org/2000/svg">
<path fill-rule="evenodd" clip-rule="evenodd" d="M0 20.6455C7.56466 36.8152 20.404 47.4526 34.97 47.4526C36.364 47.4526 37.7421 47.3551 39.1014 47.1647C39.4627 43.9705 39.6507 40.6923 39.6507 37.3512C39.6507 23.6856 36.5072 11.0766 31.2039 0.939178L26.7535 20.6455H0Z" fill="#3A5AFF"/>
<path d="M62.545 26.6602C62.545 26.6602 65.8186 26.6602 72.366 26.6602C72.7357 26.6602 73.0877 26.7589 73.422 26.9557C74.1262 27.4088 74.4781 28.0982 74.4781 29.0241C74.4781 29.2998 74.4516 29.5362 74.3988 29.7333C74.2053 30.6589 73.9852 31.5946 73.7388 32.5402C72.366 37.5632 70.3156 41.7097 67.5874 44.9796C64.877 48.21 62.0874 49.8253 59.2185 49.8253C58.8311 49.8253 58.4352 49.7958 58.0304 49.7367C55.3551 49.2835 53.1287 47.4812 51.3509 44.3295C49.3974 40.8034 48.4205 36.3911 48.4205 31.0924C48.4205 27.98 48.8077 24.8382 49.5821 21.6667C50.8318 16.5454 52.7767 12.3004 55.4167 8.93198C58.18 5.42572 61.128 3.67259 64.2609 3.67259C65.5811 3.67259 66.8218 3.98776 67.9836 4.6181C70.518 6.01667 72.4277 8.69562 73.7125 12.655C73.871 13.0094 73.9501 13.3739 73.9501 13.7483C73.9501 14.1618 73.8533 14.5557 73.6597 14.9301C73.2373 15.7179 72.6301 16.1119 71.838 16.1119C71.6267 16.1119 71.4069 16.0725 71.178 15.9937C70.4916 15.7377 70.0427 15.2451 69.8315 14.5164L69.726 14.3096C69.4092 13.3444 69.013 12.4777 68.538 11.7094C67.2531 9.6215 65.6865 8.57742 63.8386 8.57742C62.765 8.57742 61.6826 9.02063 60.5913 9.90712C58.532 11.5617 56.7455 14.4377 55.232 18.5348C53.6831 22.7501 52.9086 26.8868 52.9086 30.9445C52.9086 34.8448 53.4718 38.0951 54.5983 40.6951C55.848 43.5711 57.5551 45.0091 59.72 45.0091C61.1808 44.9893 62.765 43.9158 64.4722 41.7884C66.5666 39.1488 68.2474 35.7313 69.5148 31.5355C64.9914 31.5355 62.6417 31.5061 62.4657 31.447C60.9344 31.1712 60.1513 30.2847 60.116 28.7876C60.1513 28.4921 60.2216 28.2263 60.3272 27.9899C60.7145 27.1036 61.4537 26.6602 62.545 26.6602ZM94.2259 42.6452C94.2259 42.665 94.2347 42.6848 94.2524 42.7043C94.8156 44.5363 95.5636 45.4522 96.4964 45.4522C97.042 45.4129 97.9221 44.9796 99.1365 44.1522C100.228 43.3446 101.046 42.9407 101.592 42.9407C101.856 42.9407 102.12 43.0392 102.384 43.2362C102.841 43.6302 103.07 44.0832 103.07 44.5954C103 45.6787 102.305 46.8016 100.985 47.9637C99.4005 49.2441 97.7285 49.8844 95.9684 49.8844C94.8068 49.8844 93.8035 49.5495 92.9587 48.8796C90.9874 47.3039 90.0019 44.103 90.0019 39.2769C90.0019 38.3315 90.037 37.3367 90.1073 36.2926C90.2482 34.2834 90.389 33.0524 90.5298 32.5993C89.3682 33.269 88.1624 33.6038 86.9129 33.6038C86.7722 33.6038 86.5609 33.5841 86.2792 33.5447C86.1385 33.525 86.0329 33.5153 85.9624 33.5153C85.9096 33.5546 85.7072 33.6827 85.3552 33.8993C84.1759 34.6677 83.2256 35.0517 82.504 35.0517C82.2927 35.0517 82.0727 34.9926 81.844 34.8744C81.2984 34.5591 81.0255 34.1061 81.0255 33.5153C81.0255 33.4167 81.0344 33.3182 81.0518 33.2198C81.1047 32.8259 81.3775 32.4122 81.8703 31.9787C82.064 31.8211 82.2048 31.6931 82.2927 31.5946C81.2014 30.4719 80.647 28.9355 80.6296 26.9854C80.6296 26.1382 80.8143 25.3503 81.184 24.6216C81.9584 23.1047 83.1905 22.3465 84.8801 22.3465C85.7425 22.3465 86.5609 22.6025 87.3354 23.1146C88.6026 24.0011 89.2363 25.2222 89.2363 26.7784C89.2363 27.7043 89.113 28.5414 88.8666 29.2899C89.1306 29.1521 89.5882 28.827 90.2394 28.3148C91.5771 27.2906 92.5186 26.7784 93.0643 26.7784C93.786 26.7982 94.3932 27.0445 94.8859 27.5171C95.15 27.7733 95.2907 28.0589 95.3084 28.3739C95.3084 28.4921 95.2819 28.6695 95.2291 28.9059C95.1763 29.0832 95.15 29.2112 95.15 29.2899C94.2347 32.7569 93.7771 35.7313 93.7771 38.2133C93.7771 39.2967 93.8916 40.5178 94.1203 41.8771C94.1731 42.2317 94.2082 42.4877 94.2259 42.6452ZM85.9096 27.1625C85.9096 27.0247 85.8921 26.8769 85.8569 26.7193C85.6985 26.227 85.3729 25.9807 84.8801 25.9807C84.7745 25.9807 84.66 26.0004 84.5368 26.0398C84.044 26.2171 83.7976 26.5912 83.7976 27.1625C83.8151 28.0883 84.2552 28.7975 85.1176 29.2899C85.6281 28.6793 85.8921 27.9701 85.9096 27.1625ZM99.8758 40.5475C99.8758 39.8778 99.9109 39.1686 99.9814 38.42C100.351 35.0319 101.301 32.0281 102.833 29.4081C104.698 26.2171 106.942 24.6216 109.565 24.6216C110.691 24.6216 111.677 24.8678 112.522 25.3602C112.874 24.8874 113.358 24.6411 113.974 24.6216C114.326 24.6216 114.546 24.651 114.634 24.7101C115.391 24.9858 115.769 25.8231 115.769 27.2216C115.769 27.7928 115.681 29.0241 115.505 30.9151C114.959 36.5093 114.686 39.9861 114.686 41.3452C114.686 42.2513 114.854 43.0983 115.188 43.8863C115.681 45.0682 116.332 45.6592 117.142 45.6592C117.3 45.6592 117.467 45.6394 117.644 45.6001C118.171 45.4819 118.928 45.0288 119.914 44.2407C120.882 43.4529 121.656 43.0589 122.237 43.0589C122.466 43.0589 122.704 43.1477 122.95 43.3248C123.46 43.7189 123.716 44.2407 123.716 44.8909C123.663 45.9151 122.968 46.9789 121.63 48.0819C120.028 49.3426 118.33 49.9729 116.535 49.9729C114.317 49.9533 112.68 48.7025 111.624 46.2205C111.378 46.5554 111.096 46.8902 110.779 47.225C109.037 49.0569 107.268 49.9729 105.473 49.9729C104.346 49.9729 103.369 49.648 102.542 48.9978C100.764 47.5403 99.8758 44.7234 99.8758 40.5475ZM111.492 30.8265C111.492 30.8265 111.554 30.1566 111.677 28.8173C111.29 28.6005 110.885 28.4921 110.462 28.4921C110.146 28.4921 109.82 28.5414 109.486 28.64C107.849 29.1521 106.467 30.8461 105.341 33.722C104.338 36.3025 103.836 38.8928 103.836 41.4929C103.836 41.5915 103.836 41.6899 103.836 41.7884C103.889 44.1915 104.434 45.3931 105.473 45.3931C106.018 45.3735 106.687 45.0387 107.479 44.3886C108.289 43.7385 108.878 43.1279 109.248 42.5567C109.477 42.1823 109.785 41.0891 110.172 39.2769C110.876 35.9086 111.316 33.0917 111.492 30.8265ZM122.607 40.4293C122.607 39.7596 122.642 39.0504 122.712 38.3018C123.082 34.9335 124.032 31.9393 125.564 29.3196C127.429 26.1088 129.673 24.5034 132.296 24.5034C133.211 24.5034 134.1 24.6905 134.962 25.0647L137.101 8.04557C137.382 5.74089 138.122 4.57871 139.318 4.559C139.512 4.559 139.706 4.57871 139.899 4.6181C140.709 4.83478 141.114 5.69165 141.114 7.18869C141.114 7.79935 140.735 11.2662 139.978 17.5894C138.271 31.9886 137.418 39.9072 137.418 41.3452C137.418 42.2513 137.585 43.0983 137.919 43.8863C138.412 45.0682 139.072 45.6592 139.899 45.6592C140.058 45.6592 140.225 45.6394 140.401 45.6001C140.929 45.4819 141.695 45.0288 142.698 44.2407C143.683 43.4529 144.467 43.0589 145.047 43.0589C145.294 43.0589 145.523 43.1574 145.734 43.3544C146.156 43.7484 146.368 44.2506 146.368 44.8614C146.297 45.8857 145.611 46.9592 144.308 48.0819C142.724 49.3426 141.043 49.9729 139.266 49.9729C137.066 49.9533 135.402 48.7122 134.276 46.25C134.012 46.6046 133.713 46.9493 133.378 47.2841C131.689 49.0176 129.973 49.8844 128.23 49.8844C127.121 49.8844 126.162 49.5691 125.352 48.9387C123.522 47.5205 122.607 44.6841 122.607 40.4293ZM132.005 42.4385C132.234 42.0641 132.516 41.089 132.85 39.5133C133.554 36.1054 134.091 32.5304 134.461 28.7876C134.056 28.571 133.634 28.433 133.194 28.3739C132.877 28.3739 132.551 28.4232 132.217 28.5218C130.58 29.0339 129.198 30.7279 128.072 33.6038C127.069 36.1843 126.567 38.7746 126.567 41.3747C126.567 41.5915 126.576 41.8081 126.593 42.0248C126.681 44.2113 127.227 45.3046 128.23 45.3046C128.741 45.2848 129.383 44.9697 130.157 44.359C130.985 43.6893 131.601 43.0491 132.005 42.4385ZM148.955 47.4023C148.708 48.9978 147.987 49.8055 146.79 49.8253C146.385 49.8253 146.016 49.6972 145.681 49.4412C144.995 48.9291 144.651 48.1017 144.651 46.9592L149.43 6.27274C149.465 5.95757 149.545 5.6424 149.668 5.32723C150.055 4.42111 150.68 3.96805 151.542 3.96805C151.877 3.96805 152.202 4.06655 152.519 4.26354C153.223 4.69689 153.601 5.36662 153.654 6.27274L151.912 22.1395C160.589 11.2662 165.147 5.62271 165.587 5.20905C166.203 4.51961 166.802 4.17489 167.383 4.17489C167.77 4.17489 168.131 4.29309 168.465 4.52947C169.134 4.98251 169.468 5.63255 169.468 6.47957C169.468 7.07051 169.275 7.69101 168.888 8.34104C168.412 9.03048 162.974 15.777 152.572 28.5809C153.716 29.7234 155.001 31.0234 156.426 32.4811C163.819 39.9466 168.025 44.2506 169.046 45.3931C169.697 46.1417 170.032 46.8311 170.049 47.4614C170.049 47.9145 169.926 48.3381 169.679 48.732C169.257 49.4608 168.694 49.8253 167.99 49.8253C167.374 49.8253 166.802 49.6086 166.274 49.1751C165.675 48.7025 160.466 43.3938 150.644 33.2492C149.817 40.6164 149.254 45.334 148.955 47.4023ZM180.241 26.9263C180.241 27.4975 180.152 28.7286 179.976 30.6196C179.43 36.214 179.157 39.6906 179.157 41.0497C179.157 41.9558 179.325 42.803 179.659 43.5908C180.152 44.7727 180.812 45.3637 181.639 45.3637C181.816 45.3637 182 45.3439 182.194 45.3046C182.704 45.1666 183.443 44.7037 184.411 43.9158C185.361 43.1279 186.127 42.734 186.707 42.734C186.954 42.734 187.201 42.8324 187.448 43.0295C187.94 43.4234 188.187 43.9454 188.187 44.5954C188.117 45.6001 187.421 46.6637 186.102 47.7866C184.481 49.0473 182.784 49.6776 181.005 49.6776C179.509 49.6776 178.269 49.0965 177.283 47.9342C175.805 46.1614 175.065 43.3446 175.065 39.4837C175.065 38.1641 175.303 35.5836 175.778 31.7425C175.989 29.9499 176.139 28.6301 176.227 27.7831C176.244 27.6058 176.262 27.4285 176.28 27.2512C176.561 25.2813 177.283 24.2966 178.445 24.2966C178.638 24.2966 178.832 24.3162 179.025 24.3555C179.835 24.5723 180.241 25.4292 180.241 26.9263ZM177.23 19.1849C177.23 18.8303 177.301 18.4955 177.441 18.1802C177.793 17.4121 178.365 17.0278 179.157 17.0278C179.474 17.0278 179.773 17.1067 180.055 17.2642C180.742 17.6582 181.084 18.2984 181.084 19.1849C181.084 19.5395 181.014 19.8743 180.873 20.1894C180.522 20.9577 179.949 21.3418 179.157 21.3418C178.841 21.3418 178.541 21.2629 178.26 21.1054C177.573 20.7114 177.23 20.0712 177.23 19.1849ZM186.075 17.1166C186.093 17.1166 186.181 17.1166 186.338 17.1166C187.324 17.1559 188.212 17.1757 189.005 17.1757L190.166 8.04557C190.236 7.43492 190.324 6.92278 190.431 6.50912C190.748 5.20905 191.39 4.559 192.357 4.559C192.552 4.559 192.745 4.57871 192.94 4.6181C193.749 4.83478 194.152 5.69165 194.152 7.18869C194.152 7.66146 193.801 10.9905 193.096 17.1757H195.868C196.344 17.1757 196.759 17.284 197.11 17.5006C197.726 17.9143 198.035 18.5249 198.035 19.3326C198.035 19.6872 197.955 20.022 197.797 20.3373C197.391 21.0858 196.732 21.46 195.816 21.46H192.543C191.17 33.2789 190.483 39.9072 190.483 41.3452C190.483 42.2513 190.651 43.0983 190.986 43.8863C191.478 45.0682 192.129 45.6592 192.94 45.6592C193.132 45.6592 193.334 45.6295 193.545 45.5704C194.021 45.4326 194.699 44.9796 195.578 44.2113C196.441 43.443 197.162 43.0589 197.744 43.0589C197.99 43.0589 198.227 43.118 198.456 43.2362C199.091 43.5908 199.406 44.1324 199.406 44.8614C199.354 45.8857 198.676 46.9493 197.373 48.0524C195.791 49.3329 194.109 49.9729 192.332 49.9729C190.589 49.9533 189.164 49.1358 188.055 47.5205C186.929 45.8068 186.365 43.6499 186.365 41.0497C186.365 40.4785 187.06 33.9486 188.45 21.46H186.075C185.968 21.46 185.864 21.46 185.757 21.46C184.543 21.3418 183.935 20.6326 183.935 19.3326C183.935 18.978 183.989 18.653 184.094 18.3575C184.411 17.5303 185.071 17.1166 186.075 17.1166Z" fill="white"/>
</svg>
